# Blender v2.77 (sub 0) OBJ File: 'heart_bundle.blend'
# www.blender.org
mtllib heart_bundle.mtl
o Icosphere.001_Icosphere.000
v 0.498759 -0.428239 -0.064608
v 0.422668 -0.352602 0.848048
v -0.268346 -0.613779 0.558527
v -0.177507 -0.726385 -0.570724
v 0.625973 -0.113735 -0.945812
v 1.142193 0.146117 -0.119195
v 0.066058 -0.330042 0.638367
v -0.559654 -0.360134 0.057587
v -0.044732 0.028956 -0.703050
v 0.594645 0.478187 -0.668658
v 0.564015 0.385841 0.413690
v 0.046543 0.203103 -0.060462
v 0.129060 -0.595251 0.097564
v 0.429655 -0.427813 0.306560
v 0.273243 -0.412587 0.330109
v 0.805625 -0.066893 0.566900
v 0.811375 -0.231216 -0.173599
v 0.139758 -0.657656 -0.277018
v -0.416280 -0.864953 0.139035
v 0.624973 -0.291027 -0.512225
v 0.235699 -0.480840 -0.808895
v 0.985346 0.083443 -0.650735
v 0.548830 0.066708 1.045969
v 0.912618 0.426147 0.382424
v 0.034905 -0.403064 0.441087
v 0.249908 -0.329251 1.007865
v -0.692544 -0.732221 0.086177
v -0.473029 -0.788612 0.426609
v 0.295462 -0.018557 -1.052475
v -0.408925 -0.423240 -0.641983
v 0.961171 0.414260 -0.525121
v 0.809586 0.270377 -1.080212
v 0.270211 0.274887 0.705487
v -0.070515 -0.362114 0.310320
v -0.401358 -0.175018 -0.326646
v 0.304110 0.264905 -0.746099
v 0.607072 0.454567 -0.151503
v 0.020449 0.086957 0.290403
v 0.291662 0.307854 0.143771
v -0.167194 -0.073923 -0.017199
v -0.015836 0.130702 -0.375991
v 0.283622 0.349298 -0.327120
vn 0.4403 -0.8940 0.0830
vn 0.6462 -0.7548 0.1132
vn 0.4634 -0.8719 0.1585
vn 0.5729 -0.8148 -0.0882
vn 0.4982 -0.8583 -0.1226
vn 0.7223 -0.4608 0.5157
vn 0.4170 -0.0964 0.9038
vn -0.3671 -0.8819 -0.2957
vn 0.1431 -0.4758 -0.8679
vn 0.9371 0.1816 -0.2979
vn 0.5574 -0.4856 0.6735
vn -0.5978 0.7922 -0.1223
vn -0.6287 -0.5971 -0.4982
vn 0.1756 -0.3989 -0.9000
vn 0.8028 0.5952 0.0352
vn -0.8755 0.2495 0.4138
vn -0.3463 0.6512 0.6753
vn -0.6252 0.7592 -0.1809
vn -0.5473 0.8149 -0.1909
vn -0.3525 0.9318 0.0865
vn -0.4512 0.8883 0.0859
vn -0.3512 0.9322 0.0880
vn -0.3340 0.9412 0.0510
vn -0.5805 0.8111 -0.0714
vn -0.5584 0.8075 -0.1900
vn -0.5658 0.8002 -0.1989
vn -0.7904 0.6123 0.0158
vn -0.5941 0.7805 0.1945
vn -0.5616 0.8118 0.1598
vn -0.7718 0.6185 0.1473
vn -0.8794 0.1973 0.4332
vn -0.9112 0.2005 0.3598
vn -0.5374 0.8117 0.2287
vn -0.6242 0.7810 0.0220
vn -0.3147 0.9482 0.0436
vn -0.1042 0.9882 0.1122
vn 0.1054 0.9944 -0.0074
vn 0.1559 0.9869 0.0413
vn -0.3833 0.7284 -0.5680
vn -0.4121 0.6746 -0.6125
vn -0.5048 0.6407 -0.5785
vn -0.7376 0.5391 -0.4067
vn -0.9220 0.3147 -0.2256
vn -0.9220 0.3116 -0.2297
vn -0.3789 0.5587 0.7377
vn -0.4957 0.6306 0.5971
vn -0.6805 -0.6456 0.3464
vn -0.8682 0.2451 0.4315
vn -0.5904 0.3770 0.7136
vn 0.1122 0.8860 0.4499
vn 0.2805 0.9078 -0.3119
vn 0.9352 0.1834 -0.3029
vn 0.6955 -0.5097 -0.5065
vn -0.6239 0.4129 -0.6636
vn -0.2624 -0.4231 -0.8673
vn -0.2629 -0.4064 -0.8751
vn -0.7719 0.3180 0.5504
vn -0.4509 -0.8808 0.1448
vn 0.4923 -0.8123 0.3128
vn -0.6898 -0.6367 0.3446
vn 0.0174 -0.9923 0.1226
vn -0.0220 -0.9924 0.1213
vn -0.0629 0.8916 0.4485
vn 0.8798 -0.0131 0.4752
vn 0.9014 -0.0341 0.4316
vn 0.7542 -0.6400 -0.1471
vn 0.6558 -0.7177 -0.2342
vn 0.6330 -0.7171 -0.2918
vn 0.5943 -0.7449 -0.3032
vn 0.5372 -0.8246 -0.1772
vn 0.3995 -0.8891 -0.2235
vn 0.2888 -0.9532 -0.0889
vn 0.4474 -0.8800 0.1594
vn 0.4372 -0.8312 0.3435
vn 0.7320 -0.6639 0.1530
vn 0.6160 -0.7680 0.1752
vn 0.5561 -0.8245 0.1045
vn 0.4543 -0.8154 0.3588
vn 0.0151 -0.7908 0.6118
vn -0.0756 -0.9878 0.1362
usemtl Material.004
s off
f 1//1 14//1 13//1
f 2//2 14//2 16//2
f 1//3 13//3 18//3
f 1//4 18//4 20//4
f 1//5 20//5 17//5
f 2//6 16//6 23//6
f 3//7 15//7 25//7
f 4//8 19//8 27//8
f 5//9 21//9 29//9
f 6//10 22//10 31//10
f 2//11 23//11 26//11
f 3//12 25//12 28//12
f 4//13 27//13 30//13
f 5//14 29//14 32//14
f 6//15 31//15 24//15
f 7//16 33//16 38//16
f 8//17 34//17 40//17
f 9//18 35//18 41//18
f 10//19 36//19 42//19
f 11//20 37//20 39//20
f 39//21 42//21 12//21
f 39//22 37//22 42//22
f 37//23 10//23 42//23
f 42//24 41//24 12//24
f 42//25 36//25 41//25
f 36//26 9//26 41//26
f 41//27 40//27 12//27
f 41//28 35//28 40//28
f 35//29 8//29 40//29
f 40//30 38//30 12//30
f 40//31 34//31 38//31
f 34//32 7//32 38//32
f 38//33 39//33 12//33
f 38//34 33//34 39//34
f 33//35 11//35 39//35
f 24//36 37//36 11//36
f 24//37 31//37 37//37
f 31//38 10//38 37//38
f 32//39 36//39 10//39
f 32//40 29//40 36//40
f 29//41 9//41 36//41
f 30//42 35//42 9//42
f 30//43 27//43 35//43
f 27//44 8//44 35//44
f 28//45 34//45 8//45
f 28//46 25//46 34//46
f 25//47 7//47 34//47
f 26//48 33//48 7//48
f 26//49 23//49 33//49
f 23//50 11//50 33//50
f 31//51 32//51 10//51
f 31//52 22//52 32//52
f 22//53 5//53 32//53
f 29//54 30//54 9//54
f 29//55 21//55 30//55
f 21//56 4//56 30//56
f 27//57 28//57 8//57
f 27//58 19//58 28//58
f 19//59 3//59 28//59
f 25//60 26//60 7//60
f 25//61 15//61 26//61
f 15//62 2//62 26//62
f 23//63 24//63 11//63
f 23//64 16//64 24//64
f 16//65 6//65 24//65
f 17//66 22//66 6//66
f 17//67 20//67 22//67
f 20//68 5//68 22//68
f 20//69 21//69 5//69
f 20//70 18//70 21//70
f 18//71 4//71 21//71
f 18//72 19//72 4//72
f 18//73 13//73 19//73
f 13//74 3//74 19//74
f 16//75 17//75 6//75
f 16//76 14//76 17//76
f 14//77 1//77 17//77
f 13//78 15//78 3//78
f 13//79 14//79 15//79
f 14//80 2//80 15//80
o Icosphere_Icosphere.001
v -0.492726 -0.457650 0.393265
v -0.014542 -0.264943 1.153959
v -0.778027 -0.094472 1.286504
v -1.380654 -0.346214 0.353978
v -0.740744 -0.364660 -0.513077
v 0.191693 -0.381795 -0.128931
v -0.370031 -0.056553 1.110979
v -1.141425 0.232884 0.885361
v -1.016543 0.168531 -0.102246
v -0.343237 0.154943 -0.500078
v 0.183300 0.202346 0.449371
v -0.522899 0.315723 0.329296
v -0.740727 -0.358036 0.738869
v -0.338916 -0.381097 0.729454
v -0.429446 -0.274387 0.804743
v 0.231792 -0.288560 0.657883
v -0.242364 -0.494452 0.102763
v -0.965689 -0.450168 0.446937
v -1.224940 -0.248703 1.093042
v -0.585510 -0.464820 -0.082611
v -1.107784 -0.415774 -0.102597
v -0.237077 -0.390318 -0.485508
v 0.372506 0.015791 1.106070
v 0.430314 0.026075 0.270376
v -0.532663 -0.115579 0.987330
v -0.038628 -0.129058 1.346022
v -1.388317 0.015623 1.106196
v -1.073553 -0.126547 1.325221
v -0.988734 -0.103593 -0.508771
v -1.445143 0.026556 0.267878
v -0.035579 -0.098785 -0.500007
v -0.510317 -0.177780 -0.846692
v 0.084899 0.314531 0.851253
v -0.659696 -0.033056 0.904006
v -1.155308 0.251259 0.431015
v -0.687036 0.147875 -0.367228
v -0.063272 0.178072 -0.065053
v -0.402713 0.271493 0.676969
v -0.191233 0.274659 0.362138
v -0.775669 0.223775 0.557224
v -0.771726 0.264317 0.119213
v -0.434800 0.267654 -0.043013
vn -0.0499 -0.9686 0.2434
vn 0.1749 -0.9755 0.1333
vn 0.0176 -0.9573 0.2886
vn -0.0138 -0.9997 0.0178
vn -0.1050 -0.9938 0.0354
vn 0.5814 -0.7462 0.3242
vn 0.7429 -0.2369 0.6260
vn -0.8201 -0.5189 0.2412
vn -0.5881 -0.5488 -0.5942
vn 0.5807 -0.4356 -0.6878
vn 0.5398 -0.6538 0.5303
vn -0.1288 0.9762 -0.1745
vn -0.9857 -0.1556 0.0648
vn -0.5478 -0.5094 -0.6637
vn 0.8552 0.0071 -0.5183
vn -0.2785 0.7560 0.5924
vn 0.4194 0.7910 0.4455
vn -0.1950 0.9602 -0.1997
vn -0.1203 0.9580 -0.2603
vn 0.2213 0.9634 -0.1515
vn 0.1317 0.9866 -0.0962
vn 0.2233 0.9630 -0.1509
vn 0.2193 0.9566 -0.1920
vn -0.0802 0.9860 -0.1463
vn -0.1310 0.9587 -0.2523
vn -0.1444 0.9564 -0.2541
vn -0.2709 0.9587 0.0863
vn 0.0413 0.9949 0.0925
vn 0.0594 0.9975 0.0385
vn -0.1833 0.9653 0.1862
vn -0.2943 0.7183 0.6304
vn -0.3554 0.7326 0.5805
vn 0.1140 0.9897 0.0865
vn -0.0738 0.9965 -0.0396
vn 0.2320 0.9501 -0.2084
vn 0.4360 0.8646 -0.2498
vn 0.5214 0.7345 -0.4343
vn 0.5802 0.7034 -0.4108
vn -0.2495 0.7559 -0.6053
vn -0.3185 0.7255 -0.6101
vn -0.3806 0.7562 -0.5322
vn -0.4971 0.8285 -0.2579
vn -0.6303 0.7746 0.0528
vn -0.6339 0.7718 0.0506
vn 0.3885 0.7420 0.5464
vn 0.2621 0.8551 0.4473
vn -0.5838 -0.0833 0.8076
vn -0.2657 0.7498 0.6059
vn 0.1438 0.7187 0.6803
vn 0.7263 0.6873 -0.0140
vn 0.4395 0.5327 -0.7232
vn 0.5774 -0.4335 -0.6919
vn -0.0169 -0.8673 -0.4975
vn -0.6143 0.6357 -0.4675
vn -0.8497 -0.2673 -0.4545
vn -0.8467 -0.2544 -0.4673
vn -0.0999 0.7629 0.6388
vn -0.6385 -0.4265 0.6407
vn 0.1491 -0.9118 0.3825
vn -0.5873 -0.0708 0.8063
vn -0.3710 -0.7943 0.4811
vn -0.3995 -0.7712 0.4955
vn 0.6046 0.7949 0.0516
vn 0.8734 -0.4840 0.0545
vn 0.8553 -0.5178 0.0178
vn 0.1612 -0.9721 -0.1706
vn 0.0091 -0.9847 -0.1742
vn -0.0380 -0.9762 -0.2134
vn -0.0842 -0.9768 -0.1969
vn -0.0920 -0.9950 -0.0385
vn -0.2435 -0.9699 0.0023
vn -0.2773 -0.9432 0.1829
vn 0.0031 -0.9543 0.2988
vn 0.1184 -0.8916 0.4372
vn 0.2984 -0.9495 0.0973
vn 0.1814 -0.9624 0.2020
vn 0.0750 -0.9792 0.1887
vn 0.1460 -0.8875 0.4371
vn -0.0145 -0.5846 0.8112
vn -0.4271 -0.7345 0.5274
usemtl Material.004
s off
f 43//81 56//81 55//81
f 44//82 56//82 58//82
f 43//83 55//83 60//83
f 43//84 60//84 62//84
f 43//85 62//85 59//85
f 44//86 58//86 65//86
f 45//87 57//87 67//87
f 46//88 61//88 69//88
f 47//89 63//89 71//89
f 48//90 64//90 73//90
f 44//91 65//91 68//91
f 45//92 67//92 70//92
f 46//93 69//93 72//93
f 47//94 71//94 74//94
f 48//95 73//95 66//95
f 49//96 75//96 80//96
f 50//97 76//97 82//97
f 51//98 77//98 83//98
f 52//99 78//99 84//99
f 53//100 79//100 81//100
f 81//101 84//101 54//101
f 81//102 79//102 84//102
f 79//103 52//103 84//103
f 84//104 83//104 54//104
f 84//105 78//105 83//105
f 78//106 51//106 83//106
f 83//107 82//107 54//107
f 83//108 77//108 82//108
f 77//109 50//109 82//109
f 82//110 80//110 54//110
f 82//111 76//111 80//111
f 76//112 49//112 80//112
f 80//113 81//113 54//113
f 80//114 75//114 81//114
f 75//115 53//115 81//115
f 66//116 79//116 53//116
f 66//117 73//117 79//117
f 73//118 52//118 79//118
f 74//119 78//119 52//119
f 74//120 71//120 78//120
f 71//121 51//121 78//121
f 72//122 77//122 51//122
f 72//123 69//123 77//123
f 69//124 50//124 77//124
f 70//125 76//125 50//125
f 70//126 67//126 76//126
f 67//127 49//127 76//127
f 68//128 75//128 49//128
f 68//129 65//129 75//129
f 65//130 53//130 75//130
f 73//131 74//131 52//131
f 73//132 64//132 74//132
f 64//133 47//133 74//133
f 71//134 72//134 51//134
f 71//135 63//135 72//135
f 63//136 46//136 72//136
f 69//137 70//137 50//137
f 69//138 61//138 70//138
f 61//139 45//139 70//139
f 67//140 68//140 49//140
f 67//141 57//141 68//141
f 57//142 44//142 68//142
f 65//143 66//143 53//143
f 65//144 58//144 66//144
f 58//145 48//145 66//145
f 59//146 64//146 48//146
f 59//147 62//147 64//147
f 62//148 47//148 64//148
f 62//149 63//149 47//149
f 62//150 60//150 63//150
f 60//151 46//151 63//151
f 60//152 61//152 46//152
f 60//153 55//153 61//153
f 55//154 45//154 61//154
f 58//155 59//155 48//155
f 58//156 56//156 59//156
f 56//157 43//157 59//157
f 55//158 57//158 45//158
f 55//159 56//159 57//159
f 56//160 44//160 57//160
