# Blender v2.77 (sub 0) OBJ File: 'heart 2.blend'
# www.blender.org
mtllib heart.mtl
o Icosphere_Icosphere.001
v 0.015155 -0.457650 -0.058993
v 0.493338 -0.264943 0.701702
v -0.270147 -0.094472 0.834247
v -0.872774 -0.346214 -0.098280
v -0.232864 -0.364660 -0.965335
v 0.699573 -0.381795 -0.581189
v 0.137849 -0.056553 0.658722
v -0.633545 0.232884 0.433103
v -0.508662 0.168531 -0.554504
v 0.164643 0.154943 -0.952336
v 0.691180 0.202346 -0.002886
v -0.015019 0.315723 -0.122961
v -0.232847 -0.358036 0.286612
v 0.168964 -0.381097 0.277197
v 0.078434 -0.274387 0.352485
v 0.739672 -0.288560 0.205626
v 0.265516 -0.494452 -0.349494
v -0.457809 -0.450168 -0.005320
v -0.717060 -0.248703 0.640785
v -0.077630 -0.464820 -0.534869
v -0.599904 -0.415774 -0.554854
v 0.270803 -0.390318 -0.937765
v 0.880386 0.015791 0.653812
v 0.938194 0.026075 -0.181881
v -0.024783 -0.115579 0.535072
v 0.469252 -0.129058 0.893765
v -0.880437 0.015623 0.653938
v -0.565673 -0.126547 0.872963
v -0.480853 -0.103593 -0.961029
v -0.937263 0.026556 -0.184380
v 0.472301 -0.098785 -0.952265
v -0.002437 -0.177780 -1.298949
v 0.592779 0.314531 0.398995
v -0.151816 -0.033056 0.451749
v -0.647428 0.251259 -0.021242
v -0.179156 0.147875 -0.819485
v 0.444608 0.178072 -0.517311
v 0.105167 0.271493 0.224711
v 0.316648 0.274659 -0.090120
v -0.267789 0.223775 0.104967
v -0.263845 0.264317 -0.333044
v 0.073081 0.267654 -0.495271
vn -0.0499 -0.9686 0.2434
vn 0.1749 -0.9755 0.1333
vn 0.0176 -0.9573 0.2886
vn -0.0138 -0.9997 0.0178
vn -0.1050 -0.9938 0.0354
vn 0.5814 -0.7462 0.3242
vn 0.7429 -0.2369 0.6260
vn -0.8201 -0.5189 0.2412
vn -0.5881 -0.5488 -0.5942
vn 0.5807 -0.4356 -0.6878
vn 0.5398 -0.6538 0.5303
vn -0.1288 0.9762 -0.1745
vn -0.9857 -0.1556 0.0648
vn -0.5478 -0.5094 -0.6637
vn 0.8552 0.0071 -0.5183
vn -0.2785 0.7560 0.5924
vn 0.4194 0.7910 0.4455
vn -0.1950 0.9602 -0.1997
vn -0.1203 0.9580 -0.2603
vn 0.2213 0.9634 -0.1515
vn 0.1317 0.9866 -0.0962
vn 0.2233 0.9630 -0.1509
vn 0.2193 0.9566 -0.1920
vn -0.0802 0.9860 -0.1463
vn -0.1310 0.9587 -0.2523
vn -0.1444 0.9564 -0.2541
vn -0.2709 0.9587 0.0863
vn 0.0413 0.9949 0.0925
vn 0.0594 0.9975 0.0385
vn -0.1833 0.9653 0.1862
vn -0.2943 0.7183 0.6304
vn -0.3554 0.7326 0.5805
vn 0.1140 0.9897 0.0865
vn -0.0738 0.9965 -0.0396
vn 0.2320 0.9501 -0.2084
vn 0.4360 0.8646 -0.2498
vn 0.5214 0.7345 -0.4343
vn 0.5802 0.7034 -0.4108
vn -0.2495 0.7559 -0.6053
vn -0.3185 0.7255 -0.6101
vn -0.3806 0.7562 -0.5322
vn -0.4971 0.8285 -0.2579
vn -0.6303 0.7746 0.0528
vn -0.6339 0.7718 0.0506
vn 0.3885 0.7420 0.5464
vn 0.2621 0.8551 0.4473
vn -0.5838 -0.0833 0.8076
vn -0.2657 0.7498 0.6059
vn 0.1438 0.7187 0.6803
vn 0.7263 0.6873 -0.0140
vn 0.4395 0.5327 -0.7232
vn 0.5774 -0.4335 -0.6919
vn -0.0169 -0.8673 -0.4975
vn -0.6143 0.6357 -0.4675
vn -0.8497 -0.2673 -0.4545
vn -0.8467 -0.2544 -0.4673
vn -0.0999 0.7629 0.6388
vn -0.6385 -0.4265 0.6407
vn 0.1491 -0.9118 0.3825
vn -0.5873 -0.0708 0.8063
vn -0.3710 -0.7943 0.4811
vn -0.3995 -0.7712 0.4955
vn 0.6046 0.7949 0.0516
vn 0.8734 -0.4840 0.0545
vn 0.8553 -0.5178 0.0178
vn 0.1612 -0.9721 -0.1706
vn 0.0091 -0.9847 -0.1742
vn -0.0380 -0.9762 -0.2134
vn -0.0842 -0.9768 -0.1969
vn -0.0920 -0.9950 -0.0385
vn -0.2435 -0.9699 0.0023
vn -0.2773 -0.9432 0.1829
vn 0.0031 -0.9543 0.2988
vn 0.1184 -0.8916 0.4372
vn 0.2984 -0.9495 0.0973
vn 0.1814 -0.9624 0.2020
vn 0.0750 -0.9792 0.1887
vn 0.1460 -0.8875 0.4371
vn -0.0145 -0.5846 0.8112
vn -0.4271 -0.7345 0.5274
usemtl Material.004
s off
f 1//1 14//1 13//1
f 2//2 14//2 16//2
f 1//3 13//3 18//3
f 1//4 18//4 20//4
f 1//5 20//5 17//5
f 2//6 16//6 23//6
f 3//7 15//7 25//7
f 4//8 19//8 27//8
f 5//9 21//9 29//9
f 6//10 22//10 31//10
f 2//11 23//11 26//11
f 3//12 25//12 28//12
f 4//13 27//13 30//13
f 5//14 29//14 32//14
f 6//15 31//15 24//15
f 7//16 33//16 38//16
f 8//17 34//17 40//17
f 9//18 35//18 41//18
f 10//19 36//19 42//19
f 11//20 37//20 39//20
f 39//21 42//21 12//21
f 39//22 37//22 42//22
f 37//23 10//23 42//23
f 42//24 41//24 12//24
f 42//25 36//25 41//25
f 36//26 9//26 41//26
f 41//27 40//27 12//27
f 41//28 35//28 40//28
f 35//29 8//29 40//29
f 40//30 38//30 12//30
f 40//31 34//31 38//31
f 34//32 7//32 38//32
f 38//33 39//33 12//33
f 38//34 33//34 39//34
f 33//35 11//35 39//35
f 24//36 37//36 11//36
f 24//37 31//37 37//37
f 31//38 10//38 37//38
f 32//39 36//39 10//39
f 32//40 29//40 36//40
f 29//41 9//41 36//41
f 30//42 35//42 9//42
f 30//43 27//43 35//43
f 27//44 8//44 35//44
f 28//45 34//45 8//45
f 28//46 25//46 34//46
f 25//47 7//47 34//47
f 26//48 33//48 7//48
f 26//49 23//49 33//49
f 23//50 11//50 33//50
f 31//51 32//51 10//51
f 31//52 22//52 32//52
f 22//53 5//53 32//53
f 29//54 30//54 9//54
f 29//55 21//55 30//55
f 21//56 4//56 30//56
f 27//57 28//57 8//57
f 27//58 19//58 28//58
f 19//59 3//59 28//59
f 25//60 26//60 7//60
f 25//61 15//61 26//61
f 15//62 2//62 26//62
f 23//63 24//63 11//63
f 23//64 16//64 24//64
f 16//65 6//65 24//65
f 17//66 22//66 6//66
f 17//67 20//67 22//67
f 20//68 5//68 22//68
f 20//69 21//69 5//69
f 20//70 18//70 21//70
f 18//71 4//71 21//71
f 18//72 19//72 4//72
f 18//73 13//73 19//73
f 13//74 3//74 19//74
f 16//75 17//75 6//75
f 16//76 14//76 17//76
f 14//77 1//77 17//77
f 13//78 15//78 3//78
f 13//79 14//79 15//79
f 14//80 2//80 15//80
