# Blender v2.78 (sub 0) OBJ File: 'rock.blend'
# www.blender.org
mtllib rock.mtl
o Cube.001_Cube.002
v -0.944115 -0.958863 0.747593
v -1.510187 1.087275 0.998907
v -0.042126 -1.869019 -0.582323
v -0.986516 0.591936 -1.122899
v 0.944115 -0.958863 0.747593
v 1.510187 1.087275 0.998907
v 0.042126 -1.869019 -0.582323
v 0.986516 0.591936 -1.122899
vn -0.9141 -0.3221 -0.2464
vn 0.0000 -0.2145 -0.9767
vn 0.9141 -0.3221 -0.2464
vn 0.0000 -0.1219 0.9925
vn 0.0000 -0.8252 0.5648
vn 0.0000 0.9738 -0.2273
usemtl Material
s off
f 1//1 2//1 4//1 3//1
f 3//2 4//2 8//2 7//2
f 7//3 8//3 6//3 5//3
f 5//4 6//4 2//4 1//4
f 3//5 7//5 5//5 1//5
f 8//6 4//6 2//6 6//6
o Cube
v -0.961975 -1.738120 0.322525
v -0.196255 -1.108700 1.139628
v -0.438802 1.225010 1.574067
v -1.637868 0.810828 -0.111485
v -0.391335 -1.497952 -0.883825
v 0.110635 -1.463846 0.224505
v 1.723745 0.851483 0.149741
v 0.388344 0.670066 -1.884171
vn -0.7493 -0.1410 0.6471
vn 0.7602 -0.5040 -0.4099
vn 0.2582 -0.9530 0.1584
vn 0.6286 -0.2425 0.7390
vn 0.0004 0.9874 -0.1584
vn -0.7383 -0.1813 -0.6496
usemtl Material
s off
f 9//7 10//7 11//7 12//7
f 13//8 16//8 15//8 14//8
f 9//9 13//9 14//9 10//9
f 10//10 14//10 15//10 11//10
f 11//11 15//11 16//11 12//11
f 13//12 9//12 12//12 16//12
